<svg width="85" height="85" viewBox="0 0 180 180" fill="none" xmlns="http://www.w3.org/2000/svg">
<rect xmlns="http://www.w3.org/2000/svg" width="100%" height="100%" fill="black"/>
  <g transform="translate(5, 30)"> 
<path d="M116.228 117.927H110.85C110.287 117.927 109.758 117.64 109.46 117.157L83.4901 75.3965C82.8811 74.4197 81.9273 74.3163 81.5481 74.3163C81.1689 74.3163 80.2037 74.4197 79.6062 75.3965L53.6368 117.157C53.338 117.64 52.8094 117.927 52.2464 117.927H46.8687C45.5817 117.927 44.8003 116.513 45.4783 115.422L72.953 71.2595C74.8145 68.2602 78.0319 66.479 81.5596 66.479C85.0873 66.479 88.3048 68.2602 90.1663 71.2595L117.641 115.422C118.319 116.513 117.538 117.927 116.251 117.927H116.228Z" fill="white"/>
<path d="M131.016 117.927H125.638C125.075 117.927 124.547 117.64 124.248 117.157L85.0756 54.1717C84.2942 52.9191 83.0187 52.2066 81.5478 52.2066C80.077 52.2066 78.79 52.9191 78.0201 54.1717L38.8477 117.157C38.549 117.64 38.0204 117.927 37.4573 117.927H32.0796C30.7926 117.927 30.0113 116.514 30.6892 115.422L71.3554 50.0347C73.5617 46.4838 77.3652 44.3694 81.5478 44.3694C83.6392 44.3694 85.6271 44.898 87.3852 45.8748C89.1318 46.8516 90.6371 48.265 91.7403 50.0347L132.407 115.422C133.084 116.514 132.303 117.927 131.016 117.927Z" fill="white"/>
<path d="M145.792 117.93H140.415C139.852 117.93 139.323 117.643 139.024 117.16L86.6603 32.9499C85.5342 31.1457 83.6727 30.1114 81.5468 30.1114C79.421 30.1114 77.5596 31.1457 76.4335 32.9499L24.0695 117.16C23.7707 117.643 23.2421 117.93 22.6791 117.93H17.3013C16.0144 117.93 15.233 116.517 15.9109 115.425L69.7802 28.8014C72.2737 24.7908 76.5483 22.3546 81.2596 22.2627C86.2236 22.1593 90.843 24.8023 93.4744 29.0198L147.206 115.414C147.884 116.505 147.102 117.919 145.815 117.919L145.792 117.93Z" fill="white"/>
<path d="M160.582 117.928H155.204C154.641 117.928 154.112 117.64 153.814 117.158L88.2467 11.7224C86.7759 9.35516 84.3398 7.99915 81.5475 7.99915C78.7552 7.99915 76.3192 9.35516 74.8484 11.7224L9.2814 117.158C8.98264 117.64 8.45403 117.928 7.89098 117.928H2.51325C1.22627 117.928 0.444866 116.514 1.12283 115.422L68.1951 7.57396C71.0908 2.93136 76.0779 0.150391 81.559 0.150391C87.0402 0.150391 92.0272 2.91987 94.9229 7.57396L161.995 115.422C162.673 116.514 161.892 117.928 160.605 117.928H160.582Z" fill="white"/>
</g>
</svg>
