<svg height="32" viewBox="0 0 30 32" fill="none" xmlns="http://www.w3.org/2000/svg">
<path d="M27.5122 18.765C27.3046 18.6477 27.0991 18.5239 26.8981 18.4001C25.1111 17.2858 25.1111 14.712 26.8981 13.5999C27.0991 13.4739 27.3046 13.3523 27.5122 13.235C29.4561 12.1316 30.1232 9.68595 29.001 7.77458C27.8789 5.8632 25.3916 5.20725 23.4477 6.31064C23.3483 6.36711 23.2467 6.42358 23.1451 6.47788C21.2255 7.51828 18.8421 6.18683 18.8376 4.03436V3.99309C18.8376 1.78632 17.0175 -0.00341797 14.7732 -0.00341797C12.5289 -0.00341797 10.7087 1.78632 10.7087 3.99309C10.7087 4.00613 10.7087 4.02133 10.7087 4.03436C10.7043 6.189 8.3208 7.51828 6.40122 6.47788C6.29961 6.42358 6.20021 6.36711 6.0986 6.31064C4.15471 5.20725 1.66743 5.86103 0.545281 7.77458C-0.576868 9.68595 0.0880274 12.1316 2.03412 13.235C2.24176 13.3523 2.44719 13.4761 2.64821 13.5999C4.43525 14.7142 4.43525 17.288 2.64821 18.4001C2.44719 18.5261 2.24176 18.6477 2.03412 18.765C0.0902364 19.8684 -0.576868 22.3119 0.545281 24.2254C1.66743 26.139 4.15471 26.7928 6.0986 25.6894C6.198 25.6329 6.29961 25.5764 6.40122 25.5221C8.3208 24.4817 10.7043 25.8132 10.7087 27.9656C10.7087 27.9787 10.7087 27.9939 10.7087 28.0069C10.7087 30.2137 12.5289 32.0034 14.7732 32.0034C17.0175 32.0034 18.8376 30.2137 18.8376 28.0069V27.9656C18.8421 25.811 21.2255 24.4817 23.1451 25.52C23.2467 25.5743 23.3461 25.6307 23.4477 25.6872C25.3916 26.7906 27.8789 26.1368 29.001 24.2233C30.1232 22.3119 29.4583 19.8662 27.5122 18.7628V18.765ZM27.2781 23.248C26.9092 23.8779 26.2178 24.2689 25.4756 24.2689C25.1155 24.2689 24.7576 24.1733 24.4418 23.9952C21.5061 22.3293 18.1639 21.4474 14.7732 21.4474C11.3824 21.4474 8.04027 22.3293 5.10457 23.9952C4.78427 24.1776 4.43525 24.2689 4.07077 24.2689C3.32857 24.2689 2.63937 23.8779 2.26827 23.248C1.69615 22.2728 2.03633 21.0217 3.02815 20.4592C8.99233 17.073 12.6967 10.7633 12.6967 3.99309C12.6967 2.86799 13.6289 1.9514 14.7732 1.9514C15.9174 1.9514 16.8496 2.86799 16.8496 3.99309C16.8496 10.7633 20.554 17.073 26.5182 20.4592C26.9975 20.7328 27.3421 21.1716 27.4857 21.6994C27.6293 22.2272 27.5564 22.7767 27.2781 23.248Z" fill="url(#paint0_linear_794_65)"/>
<defs>
<linearGradient id="paint0_linear_794_65" x1="20.5747" y1="25.2951" x2="12.283" y2="5.35707" gradientUnits="userSpaceOnUse">
<stop stop-color="#FFD569"/>
<stop offset="0.515056" stop-color="#FC8E4F"/>
<stop offset="1" stop-color="#FF697B"/>
</linearGradient>
</defs>
</svg>
