<?xml version="1.0" encoding="utf-8"?>
<!-- Generator: Adobe Illustrator 24.0.0, SVG Export Plug-In . SVG Version: 6.00 Build 0)  -->
<svg xmlns="http://www.w3.org/2000/svg"  viewBox="40 75 65 65">
<title>sei</title>
<g >
<path fill-rule="evenodd" clip-rule="evenodd" d="M74.1623 136.633C83.1456 136.633 91.2163 132.726 96.7677 126.518C94.1853 124.273 90.2936 124.137 87.5444 126.355L87.0192 126.779C81.9855 130.841 74.6508 130.241 70.3439 125.416C67.9948 122.784 63.9719 122.515 61.2937 124.811L55.2382 130.003C60.4247 134.152 67.0037 136.633 74.1623 136.633ZM83.9917 121.953C88.7863 118.084 95.5253 118.223 100.137 121.959C102.893 117.392 104.479 112.04 104.479 106.316C104.479 99.957 102.521 94.0551 99.1746 89.1804C97.0175 88.721 94.6794 89.2575 92.9046 90.8303L92.3994 91.2779C87.5585 95.5677 80.2039 95.307 75.6789 90.6854C73.211 88.1647 69.1799 88.0819 66.6105 90.4992L59.5636 97.1288L55.6871 93.0083L62.734 86.3786C67.547 81.8505 75.0982 82.0056 79.7213 86.7274C82.1369 89.1947 86.063 89.3338 88.6473 87.0438L89.1523 86.5961C90.721 85.2061 92.536 84.2689 94.4362 83.7761C89.0652 78.9419 81.9573 76 74.1623 76C58.7725 76 46.0611 87.4674 44.1065 102.323C48.781 100.08 54.5469 100.944 58.3583 104.847C60.7644 107.311 64.6387 107.571 67.3526 105.45L71.2927 102.372C76.2443 98.5037 83.2442 98.6909 87.982 102.819L95.6528 109.502L91.9364 113.767L84.2657 107.084C81.5716 104.737 77.5913 104.631 74.7756 106.83L70.8356 109.909C65.8494 113.804 58.7313 113.326 54.3106 108.799C51.74 106.167 47.5357 106.075 44.8526 108.593L44 109.393C44.6381 115.725 47.2246 121.481 51.151 126.055L57.6114 120.516C62.6284 116.215 70.1644 116.718 74.5647 121.648C76.8639 124.225 80.7793 124.545 83.4665 122.376L83.9917 121.953Z" fill="#BA364E"/>
</g>
</svg>
